<?xml version="1.0" standalone="no"?>
<!DOCTYPE svg PUBLIC "-//W3C//DTD SVG 20010904//EN"
 "http://www.w3.org/TR/2001/REC-SVG-20010904/DTD/svg10.dtd">
<svg version="1.0" xmlns="http://www.w3.org/2000/svg"
 width="544.000000pt" height="544.000000pt" viewBox="0 0 544.000000 544.000000"
 preserveAspectRatio="xMidYMid meet">
<metadata>
Created by potrace 1.11, written by Peter Selinger 2001-2013
</metadata>
<g transform="translate(0.000000,544.000000) scale(0.100000,-0.100000)"
fill="#000000" stroke="none">
<path d="M3373 4368 c-8 -13 -13 -33 -15 -55 -1 -7 -5 -13 -8 -13 -7 0 -24
-58 -21 -72 0 -5 -3 -8 -8 -8 -5 0 -11 -8 -13 -17 -2 -12 -14 -17 -42 -19 -28
-1 -35 1 -23 8 13 7 15 18 11 51 -3 23 -6 59 -5 81 l1 38 -43 -6 c-68 -9 -86
-14 -101 -29 -17 -16 -23 -47 -14 -62 4 -6 2 -17 -4 -25 -8 -12 -9 -11 -4 4 5
13 2 17 -9 12 -18 -7 -19 -2 -3 27 10 19 9 20 -4 9 -11 -9 -17 -9 -20 -2 -14
42 -208 -32 -400 -153 -77 -48 -86 -74 -44 -124 21 -26 36 -58 42 -91 4 -21
-41 -61 -74 -68 -45 -9 -82 3 -82 25 0 11 -12 29 -27 40 -25 20 -27 21 -52 4
-33 -21 -77 -67 -98 -104 -10 -16 -20 -29 -24 -29 -3 0 -18 -18 -33 -40 -14
-22 -23 -40 -19 -40 4 0 -1 -6 -12 -13 -13 -10 -15 -16 -6 -21 6 -4 9 -15 7
-24 -4 -13 0 -17 19 -17 15 0 21 3 15 9 -22 22 -8 26 19 7 16 -12 35 -21 43
-21 30 -1 77 -60 47 -60 -5 0 -9 -7 -9 -17 0 -9 -3 -13 -6 -10 -4 3 -16 1 -27
-5 -17 -9 -24 -7 -38 11 -9 11 -23 21 -29 21 -7 0 -10 8 -7 19 3 14 1 18 -9
14 -17 -6 -19 13 -1 21 6 3 1 3 -12 0 -21 -6 -23 -4 -17 20 8 33 -7 34 -28 2
-14 -23 -13 -56 3 -56 3 0 23 -15 44 -32 l37 -33 -40 0 c-22 0 -40 3 -40 8 0
4 -5 7 -11 7 -5 0 -8 -4 -5 -8 2 -4 -8 -8 -22 -7 -16 0 -26 -5 -25 -12 2 -7
-2 -13 -8 -13 -5 0 -8 -4 -4 -10 3 -5 -3 -18 -13 -28 -33 -33 -51 -92 -28 -92
7 0 20 -8 27 -17 12 -15 12 -16 -1 -8 -12 7 -13 6 -3 -6 10 -12 7 -17 -17 -27
-33 -15 -64 -73 -63 -119 1 -36 37 -93 59 -93 8 0 14 -3 14 -8 0 -4 16 -7 36
-6 30 2 35 -1 31 -17 -3 -10 -2 -17 2 -16 3 1 7 -2 8 -6 1 -5 10 -15 20 -23
17 -13 17 -14 -1 -7 -15 5 -17 3 -11 -8 8 -12 6 -12 -8 -1 -9 8 -21 11 -27 7
-5 -3 -10 -1 -10 4 0 6 -6 10 -12 9 -7 -2 -12 3 -10 10 1 6 -1 11 -5 11 -21
-3 -33 2 -27 13 4 7 3 8 -4 4 -7 -4 -22 -9 -34 -11 -36 -7 -48 -28 -49 -83 -1
-43 2 -55 22 -72 13 -11 35 -23 49 -27 14 -3 40 -21 58 -40 29 -28 37 -31 55
-21 12 6 23 11 25 10 11 -8 20 1 15 15 -4 9 -2 14 3 10 6 -3 15 3 22 14 7 10
9 19 4 19 -4 0 -8 11 -8 25 0 14 4 25 8 25 4 0 8 5 8 11 0 5 -5 7 -12 3 -8 -5
-9 -2 -5 9 3 10 2 17 -3 17 -6 0 -10 4 -10 8 0 15 29 9 35 -7 6 -14 8 -13 21
3 8 11 14 16 14 10 0 -5 5 -2 10 6 7 11 10 5 11 -25 2 -91 16 -180 40 -265 7
-25 13 -47 13 -50 3 -14 51 -136 55 -140 10 -8 45 -84 43 -92 -1 -5 2 -8 8 -8
14 0 14 0 -20 75 -33 73 -62 170 -75 251 -5 28 -9 134 -6 160 0 6 14 11 30 10
22 -1 27 -4 19 -13 -6 -7 -15 -10 -21 -6 -6 3 -7 1 -3 -5 5 -9 14 -7 32 5 24
15 26 15 62 -14 31 -26 37 -37 38 -72 1 -32 8 -47 29 -66 16 -13 39 -23 52
-22 24 2 86 65 77 79 -3 4 0 8 6 8 6 0 8 5 5 10 -3 6 -1 10 6 10 7 0 9 3 6 7
-7 7 11 33 23 33 4 0 10 -24 13 -52 9 -79 15 -105 48 -200 16 -48 28 -90 27
-95 -6 -24 19 -82 48 -111 19 -19 31 -39 27 -45 -3 -6 -1 -7 5 -3 7 4 12 3 12
-3 0 -17 116 -125 157 -146 21 -11 41 -24 45 -30 4 -5 40 -10 80 -12 40 -1
101 -8 135 -16 34 -8 65 -12 67 -9 3 3 11 0 18 -5 26 -21 118 -37 118 -21 0 6
7 8 15 4 8 -3 15 -1 15 5 0 6 15 9 33 7 19 -2 37 3 45 12 8 8 11 10 8 4 -8
-15 27 -24 48 -12 9 5 14 15 10 21 -3 7 0 5 8 -3 7 -8 24 -16 38 -17 52 -4 68
-7 65 -14 -3 -3 7 -11 20 -17 17 -8 23 -17 20 -32 -2 -11 1 -20 7 -20 6 0 7
-7 3 -17 -4 -10 -8 -23 -8 -29 -1 -17 -112 -2 -158 22 -15 7 -29 10 -33 7 -3
-4 -6 0 -6 7 0 7 -3 10 -7 7 -3 -4 -12 -2 -19 4 -8 6 -21 9 -29 5 -8 -3 -15
-1 -15 5 0 11 -53 0 -58 -13 -2 -4 -8 -6 -13 -2 -5 3 -9 1 -9 -4 0 -9 -19 -18
-60 -28 -8 -2 -28 1 -45 7 -53 19 -95 27 -95 18 0 -5 -6 -9 -12 -9 -14 0 -68
-63 -68 -79 0 -6 -7 -11 -16 -11 -8 0 -12 -5 -9 -10 3 -5 0 -10 -8 -10 -7 0
-18 -16 -24 -35 -9 -29 -9 -35 3 -35 8 0 14 -4 14 -8 0 -5 10 -14 23 -21 45
-24 -65 -1 -132 27 -161 68 -302 162 -410 274 -96 99 -221 251 -221 268 0 6
-7 13 -15 16 -8 4 -15 10 -15 15 0 12 -124 175 -159 210 -14 14 -52 53 -84 87
-31 33 -57 59 -57 56 0 -2 -13 10 -29 26 -15 17 -32 30 -37 30 -5 0 -19 10
-30 23 -12 12 -48 40 -80 62 -33 22 -60 43 -62 48 -2 4 -10 7 -18 7 -8 0 -14
5 -14 10 0 6 -5 10 -11 10 -6 0 -24 9 -40 21 -16 11 -29 17 -29 13 0 -3 -7 0
-16 7 -29 24 -169 95 -229 116 -16 6 -39 14 -50 19 -29 10 -86 27 -138 39 -10
2 -26 6 -35 9 -9 3 -30 7 -47 10 -33 5 -106 17 -145 23 -43 7 -339 14 -363 8
-16 -4 -41 -41 -90 -128 -96 -174 -125 -226 -152 -273 -28 -47 -25 -55 15 -44
16 4 31 6 34 3 2 -3 11 -1 18 3 7 4 19 9 28 10 8 1 29 4 45 8 40 9 80 15 140
21 28 3 61 7 76 10 19 4 173 14 254 17 6 0 51 -3 100 -7 50 -3 97 -7 105 -7
15 -1 148 -23 185 -32 75 -17 122 -30 133 -39 6 -5 12 -7 12 -4 0 4 21 -3 48
-14 65 -29 86 -37 96 -37 5 0 12 -5 15 -10 3 -5 24 -19 46 -31 22 -12 54 -30
70 -39 17 -10 55 -31 85 -47 30 -16 82 -50 115 -74 65 -48 285 -266 350 -346
71 -87 167 -184 234 -238 36 -28 68 -55 69 -59 2 -5 12 -8 23 -8 10 0 19 -4
19 -10 0 -5 5 -10 11 -10 6 0 23 -9 39 -20 15 -11 30 -17 34 -13 3 3 6 1 6 -5
0 -7 5 -12 11 -12 7 0 34 -13 60 -30 27 -16 49 -27 49 -24 0 4 6 2 13 -4 6 -5
26 -12 43 -15 17 -3 41 -10 52 -16 12 -6 25 -10 29 -9 4 1 31 -3 58 -7 28 -5
52 -9 55 -10 3 0 10 -3 15 -6 13 -8 303 -4 333 5 12 3 30 8 40 11 71 18 130
37 209 68 51 19 90 31 87 25 -16 -25 -129 -77 -229 -105 -64 -17 -140 -34
-185 -40 -102 -14 -345 -4 -374 15 -6 4 -20 7 -31 7 -11 0 -27 5 -35 10 -8 5
-24 10 -37 11 -37 4 -202 87 -280 140 -89 61 -163 127 -333 297 -164 162 -241
232 -320 287 -19 13 -37 27 -40 30 -3 4 -12 10 -20 14 -8 4 -42 22 -75 41
-117 68 -274 138 -335 149 -3 1 -18 7 -35 13 -36 15 -187 52 -235 58 -19 3
-46 7 -60 10 -25 5 -186 18 -205 17 -155 -11 -206 -16 -245 -27 -8 -2 -33 -6
-55 -10 -22 -3 -48 -8 -57 -11 -9 -3 -25 -7 -35 -9 -89 -18 -313 -109 -313
-126 0 -5 -6 -9 -12 -9 -7 0 -24 -12 -37 -25 -13 -14 -27 -25 -32 -25 -5 0 -9
-7 -9 -15 0 -8 -4 -15 -9 -15 -5 0 -19 -20 -31 -45 -41 -85 -11 -154 84 -195
67 -28 159 -18 301 35 50 19 124 43 165 55 74 21 91 25 140 35 14 2 36 7 50
10 69 13 91 16 170 23 194 15 398 3 525 -30 22 -5 47 -12 55 -13 76 -18 208
-70 318 -128 50 -26 92 -44 92 -40 0 4 7 -1 15 -11 8 -11 15 -17 15 -12 0 6
122 -86 162 -123 34 -31 48 -42 48 -34 0 4 6 0 13 -8 6 -9 34 -33 62 -55 27
-21 55 -43 61 -49 6 -5 22 -17 34 -25 13 -8 30 -23 39 -32 8 -10 21 -18 29
-18 7 0 15 -6 18 -14 10 -26 89 -74 279 -169 73 -37 96 -45 142 -53 16 -2 39
-6 53 -9 131 -24 366 -24 452 1 9 3 25 6 35 8 39 8 194 70 260 104 57 29 44 7
-20 -35 -89 -58 -216 -105 -317 -118 -14 -2 -45 -7 -70 -11 -56 -9 -229 -9
-295 -1 -81 11 -130 20 -155 30 -8 3 -33 11 -55 18 -47 14 -137 61 -182 95
-17 13 -35 24 -38 24 -4 0 -13 6 -20 13 -29 25 -40 33 -57 40 -10 3 -18 11
-18 17 0 5 -5 10 -10 10 -12 0 -173 111 -178 122 -2 5 -8 8 -13 8 -5 0 -60 35
-122 79 -117 82 -328 186 -417 206 -3 1 -25 7 -50 14 -25 7 -52 15 -60 16 -8
2 -15 4 -15 5 0 1 -9 3 -20 5 -11 2 -31 6 -45 9 -13 3 -42 8 -65 11 -22 3 -51
8 -65 10 -119 21 -334 21 -450 0 -122 -22 -282 -67 -375 -106 -16 -7 -32 -13
-35 -14 -26 -7 -132 -66 -141 -78 -3 -5 -10 -8 -14 -7 -14 4 -114 -90 -145
-137 -55 -81 -67 -125 -50 -179 16 -48 59 -75 127 -79 75 -5 159 23 323 108
197 102 352 159 506 186 33 6 73 13 89 16 129 24 383 24 490 1 118 -26 348
-109 380 -137 5 -5 17 -9 27 -9 10 0 18 -4 18 -10 0 -5 6 -10 14 -10 8 0 21
-6 28 -12 7 -7 19 -14 26 -15 6 -2 107 -56 224 -121 195 -107 264 -144 278
-146 3 -1 10 -5 17 -9 15 -10 141 -48 173 -53 14 -2 45 -7 70 -10 56 -9 215
-8 295 0 69 7 186 37 265 68 49 19 228 121 240 137 3 3 25 22 50 42 124 100
228 228 367 454 7 11 48 83 91 160 92 163 107 180 199 238 59 37 115 52 205
56 14 1 58 57 58 75 0 10 -109 -3 -132 -15 -10 -5 -18 -8 -18 -5 0 2 -25 -2
-55 -9 -31 -7 -58 -9 -60 -5 -3 5 -2 10 2 12 15 6 71 84 96 133 31 62 31 97 1
126 -52 49 -107 -8 -138 -143 -10 -43 -22 -78 -26 -78 -5 0 -7 10 -4 23 5 28
14 82 20 127 7 59 7 182 -1 245 -14 118 -14 123 1 129 12 4 12 10 4 26 -9 16
-8 19 6 13 9 -3 14 -13 11 -24 -3 -12 0 -19 10 -19 8 0 11 -5 8 -10 -5 -8 -11
-7 -21 1 -10 8 -14 8 -14 0 0 -6 4 -11 9 -11 6 0 10 -8 10 -17 2 -63 9 -105
17 -113 7 -7 9 -1 6 20 -2 18 0 30 7 30 11 0 10 57 -2 77 -8 13 20 46 33 38 4
-3 13 2 20 10 6 7 17 12 25 9 7 -3 16 0 20 5 3 6 11 9 16 6 5 -3 6 2 3 12 -5
17 -5 17 9 0 14 -17 15 -16 20 3 3 11 1 23 -4 26 -5 3 -9 1 -9 -4 0 -12 -32
-12 -47 0 -8 6 -15 3 -23 -11 -6 -12 -17 -21 -25 -21 -8 0 -15 -7 -15 -16 0
-8 -4 -12 -10 -9 -5 3 -10 1 -10 -6 0 -7 -3 -9 -6 -6 -4 4 -1 13 6 22 11 13
10 14 -5 9 -14 -6 -16 -4 -10 6 5 8 4 11 -1 7 -17 -10 -37 10 -30 29 4 11 7
20 6 22 -1 2 5 14 14 27 14 21 14 23 -2 20 -9 -1 -22 7 -28 18 -10 17 -12 18
-17 3 -4 -10 -3 -15 3 -11 6 3 7 -1 4 -9 -4 -10 -1 -16 7 -16 7 0 9 -3 5 -7
-4 -4 -16 3 -26 17 -11 14 -20 19 -20 12 0 -21 -35 18 -56 63 -23 52 -108 190
-141 229 -36 45 -143 156 -148 156 -3 0 -30 20 -60 44 -70 57 -179 121 -280
164 -44 18 -82 33 -85 33 -3 0 -21 4 -40 9 -19 5 -38 10 -42 10 -4 1 -22 6
-40 11 -57 17 -175 31 -280 31 -30 1 -49 6 -52 14 -4 10 3 14 19 14 14 0 25 6
25 13 0 8 3 7 10 -3 7 -12 12 -12 29 4 20 18 19 18 -12 49 -17 17 -32 40 -32
51 0 12 -6 31 -13 43 -6 12 -12 27 -12 33 0 6 -6 18 -14 26 -12 11 -16 11 -23
2z m15 -75 c-2 -10 2 -17 8 -16 6 1 11 -4 11 -11 0 -17 -25 -16 -31 1 -5 13 2
43 11 43 2 0 3 -8 1 -17z m-8 -65 c0 -9 2 -10 8 -2 5 8 15 8 31 3 18 -7 21
-12 12 -23 -6 -7 -7 -17 -3 -22 4 -4 0 -3 -10 4 -9 7 -18 9 -20 5 -3 -4 -3 -2
-1 5 2 8 -2 10 -10 5 -23 -14 -34 -11 -32 11 3 26 3 26 15 26 6 0 10 -6 10
-12z m243 -294 c105 -12 216 -46 311 -96 24 -12 35 -15 30 -6 -4 7 8 1 28 -14
20 -16 41 -28 47 -28 6 0 11 -4 11 -9 0 -5 14 -14 30 -21 17 -7 30 -16 30 -21
0 -5 5 -9 10 -9 13 0 58 -39 126 -108 44 -45 52 -58 49 -85 -2 -18 -4 -33 -5
-34 -2 -2 -3 -7 -4 -12 0 -5 -4 -13 -8 -17 -11 -10 -10 -64 1 -64 13 0 28 -79
22 -118 -2 -11 -51 -14 -51 -2 0 5 -7 7 -15 4 -8 -4 -15 -1 -15 5 0 6 -9 11
-19 11 -11 0 -22 4 -26 9 -7 12 -46 5 -55 -9 -3 -5 -5 -23 -4 -40 1 -16 -2
-30 -6 -30 -8 0 -25 48 -22 63 1 4 -3 7 -8 7 -6 0 -8 11 -4 26 5 21 4 25 -6
19 -10 -6 -12 -4 -7 8 4 11 1 15 -14 12 -10 -2 -19 2 -19 8 0 7 -9 19 -20 27
-11 8 -20 22 -20 32 0 9 -4 19 -9 22 -5 3 -11 20 -14 38 -16 96 -20 114 -28
124 -5 6 -6 14 -2 17 3 4 -1 7 -10 7 -9 0 -17 4 -17 9 0 5 -16 16 -35 25 -35
17 -73 10 -76 -14 -1 -6 -2 -16 -3 -22 0 -7 -6 -13 -13 -13 -6 0 -14 -3 -18
-7 -4 -4 -17 -3 -30 2 -13 5 -26 6 -29 3 -3 -4 -6 -1 -6 6 0 7 -5 9 -10 6 -6
-3 -13 1 -16 9 -3 9 -10 14 -14 11 -5 -3 -12 1 -17 9 -4 8 -17 16 -28 18 -25
4 -66 48 -57 62 8 13 10 28 15 87 2 25 6 50 10 55 3 6 1 16 -5 24 -8 12 -9 11
-4 -5 6 -19 5 -19 -8 -2 -7 9 -22 17 -32 18 -14 1 -13 3 6 8 14 5 29 6 33 4 4
-3 27 -7 50 -9z m-170 -191 c3 -5 -5 -8 -18 -8 -13 0 -21 3 -18 8 2 4 10 7 18
7 8 0 16 -3 18 -7z m-9 -21 c3 -5 -1 -9 -9 -9 -8 0 -12 4 -9 9 3 4 7 8 9 8 2
0 6 -4 9 -8z m40 -23 c-2 -4 2 -10 8 -12 8 -4 9 -6 2 -6 -6 -1 -17 5 -23 12
-8 10 -7 14 4 14 8 0 12 -4 9 -8z m-22 -27 c-7 -2 -10 -8 -7 -12 3 -5 17 -2
32 5 27 14 48 11 38 -6 -4 -5 1 -9 10 -9 9 0 13 -4 10 -10 -3 -5 3 -10 14 -10
11 0 22 -4 25 -9 4 -5 17 -8 29 -7 14 2 24 -2 24 -10 0 -9 -17 -11 -61 -7 -94
6 -147 6 -188 0 -31 -6 -36 -4 -32 8 4 8 14 15 24 15 10 0 20 5 22 11 2 5 12
11 23 13 13 2 20 10 19 24 -1 14 3 19 14 14 11 -4 12 -7 4 -10z m-552 -112
c22 -11 40 -25 40 -31 0 -6 5 -7 12 -3 6 4 8 3 5 -3 -5 -7 -21 -6 -49 4 -24 8
-55 13 -70 11 -23 -4 -25 -2 -17 13 7 14 19 23 37 28 1 1 21 -8 42 -19z m-565
-40 c-3 -5 -11 -10 -16 -10 -6 0 -7 5 -4 10 3 6 11 10 16 10 6 0 7 -4 4 -10z
m-85 -43 c0 -4 13 -6 29 -4 23 4 28 2 24 -9 -3 -8 -9 -14 -15 -14 -5 0 -6 6
-2 13 4 7 3 9 -2 4 -5 -5 -9 -18 -9 -29 0 -12 -7 -22 -18 -24 -9 -1 -15 1 -13
5 3 4 -4 13 -14 21 -10 8 -17 17 -14 22 3 4 -2 8 -11 8 -9 0 -14 4 -11 8 6 11
56 10 56 -1z m2410 -157 c0 -5 -2 -10 -4 -10 -3 0 -8 5 -11 10 -3 6 -1 10 4
10 6 0 11 -4 11 -10z m140 -56 c0 -8 -4 -14 -9 -14 -6 0 -9 9 -8 19 1 22 17
18 17 -5z m-40 -19 c-7 -9 -15 -13 -19 -10 -3 3 1 10 9 15 21 14 24 12 10 -5z
m-69 -78 c-10 -9 -11 -8 -5 6 3 10 9 15 12 12 3 -3 0 -11 -7 -18z m15 -22 c-1
-8 -5 -17 -8 -21 -5 -4 -4 16 1 34 3 9 9 -1 7 -13z m-307 -154 c26 -23 28 -31
9 -42 -9 -6 -10 -9 -1 -9 7 0 10 -7 7 -15 -5 -13 -53 -18 -52 -5 2 20 -4 30
-12 25 -12 -8 -9 32 3 53 11 17 20 15 46 -7z m-249 -81 c16 -9 19 -19 15 -63
-7 -83 -17 -138 -36 -196 -17 -52 -66 -146 -84 -161 -8 -7 -12 -16 -9 -21 3
-5 1 -9 -4 -9 -5 0 -14 10 -20 23 -12 23 -25 44 -55 89 -18 27 -18 27 13 55
41 36 107 135 115 173 4 16 10 30 14 30 6 0 12 28 14 73 1 20 10 21 37 7z
m108 -44 c1 -14 3 -29 4 -33 4 -19 -34 -91 -47 -87 -13 5 -15 28 -3 40 4 3 5
31 2 61 -2 30 -2 59 2 64 9 16 39 -17 42 -45z m286 -173 c-11 -75 -25 -129
-46 -183 -26 -67 -51 -107 -56 -91 -2 6 -9 11 -16 11 -6 0 -12 9 -12 20 0 11
4 20 9 20 5 0 7 6 5 12 -3 7 4 21 13 32 10 10 16 22 14 26 -3 5 2 11 11 14 9
4 14 9 11 12 -2 3 6 17 19 31 13 14 21 29 18 34 -3 5 -1 9 5 9 5 0 8 8 6 18
-1 9 0 22 4 27 6 10 7 16 10 35 0 6 3 10 6 10 3 0 2 -17 -1 -37z m-637 -151
c-10 -10 -14 -21 -11 -24 3 -3 0 -9 -7 -14 -7 -4 -10 -3 -6 3 3 5 0 10 -8 10
-8 0 -15 -4 -15 -9 0 -8 9 -10 47 -11 13 0 20 -4 16 -10 -4 -6 0 -8 9 -5 8 4
15 1 15 -7 0 -7 -7 -11 -14 -8 -8 3 -13 2 -12 -3 3 -19 -2 -33 -17 -49 -15
-15 -18 -15 -35 4 -11 11 -19 23 -19 27 0 3 -9 17 -20 31 -23 30 -12 55 23 49
12 -1 30 5 41 16 26 23 34 23 13 0z m-17 -662 c0 -5 -7 -10 -16 -10 -8 0 -12
5 -9 10 3 6 10 10 16 10 5 0 9 -4 9 -10z"/>
<path d="M3360 4221 c0 -6 4 -13 10 -16 6 -3 7 1 4 9 -7 18 -14 21 -14 7z"/>
<path d="M3410 4209 c0 -5 5 -7 10 -4 6 3 10 8 10 11 0 2 -4 4 -10 4 -5 0 -10
-5 -10 -11z"/>
<path d="M4084 3328 c-4 -6 -3 -8 4 -4 5 3 13 0 15 -6 3 -8 6 -6 6 5 1 19 -14
23 -25 5z"/>
<path d="M3500 3660 c-9 -6 -10 -10 -3 -10 6 0 15 5 18 10 8 12 4 12 -15 0z"/>
<path d="M4020 2645 c-7 -8 -9 -15 -6 -15 4 0 14 7 22 15 9 8 11 15 6 15 -5 0
-15 -7 -22 -15z"/>
<path d="M3995 2580 c3 -5 8 -10 11 -10 2 0 4 5 4 10 0 6 -5 10 -11 10 -5 0
-7 -4 -4 -10z"/>
<path d="M3910 2480 c0 -5 5 -10 11 -10 5 0 7 5 4 10 -3 6 -8 10 -11 10 -2 0
-4 -4 -4 -10z"/>
<path d="M3569 4368 c-1 -7 -1 -17 0 -21 1 -4 -3 -17 -9 -28 -9 -15 -7 -21 5
-25 8 -3 15 -12 15 -20 0 -9 6 -11 18 -7 15 6 15 4 4 -9 -10 -13 -11 -22 -2
-37 6 -12 7 -21 3 -21 -4 0 -2 -5 5 -12 9 -9 9 -15 -1 -26 -10 -13 -9 -14 10
-1 12 7 20 15 18 17 -2 3 2 17 10 33 20 39 19 43 -7 19 -25 -23 -34 -20 -19 8
6 11 6 23 1 28 -5 5 -11 22 -14 37 -3 16 -11 36 -18 45 -11 13 -11 14 2 7 13
-8 13 -7 1 8 -16 20 -21 21 -22 5z m27 -64 c2 -12 -1 -13 -12 -3 -7 6 -11 16
-8 21 7 11 17 3 20 -18z m17 -59 c-3 -9 -8 -14 -10 -11 -3 3 -2 9 2 15 9 16
15 13 8 -4z m21 -40 c-4 -8 -11 -15 -16 -15 -6 0 -5 6 2 15 7 8 14 15 16 15 2
0 1 -7 -2 -15z"/>
<path d="M3545 4271 c4 -12 2 -21 -4 -21 -6 0 -11 -7 -11 -16 0 -9 -9 -29 -20
-44 -12 -16 -16 -31 -11 -35 5 -3 14 3 20 12 9 15 10 15 11 2 0 -9 7 -16 15
-16 8 0 11 5 8 11 -8 13 -8 45 0 66 12 31 12 53 -2 58 -9 3 -11 -1 -6 -17z"/>
<path d="M4016 4259 c3 -5 10 -7 15 -4 5 4 11 0 14 -7 3 -8 16 -14 28 -15 19
-2 18 1 -8 15 -35 19 -57 24 -49 11z"/>
<path d="M3713 4244 c0 -16 13 -19 21 -5 3 5 0 11 -7 14 -8 3 -14 -1 -14 -9z"/>
<path d="M3915 4240 c-3 -6 1 -7 9 -4 18 7 21 14 7 14 -6 0 -13 -4 -16 -10z"/>
<path d="M3715 4210 c-4 -6 1 -7 11 -3 13 5 15 3 9 -7 -5 -9 -4 -11 4 -6 6 4
9 12 6 17 -8 12 -22 12 -30 -1z"/>
<path d="M3891 4201 c-8 -13 -7 -30 3 -57 11 -33 13 -35 18 -16 4 12 2 20 -3
16 -5 -3 -9 -1 -9 5 0 5 -3 17 -7 27 -4 10 -2 15 3 11 5 -3 10 3 10 14 0 24
-3 24 -15 0z"/>
<path d="M3270 4202 c0 -5 7 -9 15 -9 8 0 12 4 9 9 -3 4 -9 8 -15 8 -5 0 -9
-4 -9 -8z"/>
<path d="M3565 4180 c-16 -7 -17 -9 -3 -9 9 -1 20 4 23 9 7 11 7 11 -20 0z"/>
<path d="M3717 4180 c9 -10 9 -17 2 -26 -8 -10 -6 -12 10 -9 12 2 21 -1 21 -6
0 -6 5 -7 11 -3 8 5 6 10 -5 16 -9 5 -13 15 -10 21 4 7 4 9 -1 5 -4 -4 -15 -2
-24 4 -13 10 -14 10 -4 -2z"/>
<path d="M3920 4100 c-12 -7 -10 -9 8 -7 12 0 22 5 22 9 0 11 -12 10 -30 -2z"/>
<path d="M3955 4081 c-3 -5 -2 -12 3 -15 5 -3 9 1 9 9 0 17 -3 19 -12 6z"/>
<path d="M3986 4069 c3 -5 9 -7 14 -4 4 3 11 0 13 -5 3 -6 4 -5 3 1 -1 7 -10
13 -19 15 -9 1 -15 -2 -11 -7z"/>
<path d="M4675 3640 c-3 -5 -1 -10 4 -10 6 0 11 5 11 10 0 6 -2 10 -4 10 -3 0
-8 -4 -11 -10z"/>
<path d="M4703 3634 c0 -7 6 -14 12 -14 15 0 55 -46 55 -63 0 -7 6 -19 13 -26
8 -10 8 -12 0 -7 -6 3 -15 1 -19 -6 -4 -7 -4 -10 1 -6 4 4 14 3 20 -2 9 -8 14
-6 18 4 4 9 2 18 -3 21 -6 4 -10 14 -10 23 0 20 -36 64 -66 80 -16 9 -21 8
-21 -4z"/>
<path d="M4570 3547 c0 -4 7 -19 16 -32 9 -14 13 -25 10 -25 -4 0 1 -11 10
-25 8 -13 13 -28 10 -34 -3 -5 3 -7 14 -4 25 7 25 11 -2 35 -12 10 -23 25 -24
33 -2 15 -34 64 -34 52z"/>
<path d="M4831 3443 c-1 -13 -4 -22 -8 -20 -9 2 -13 -6 -13 -24 0 -6 6 -9 14
-6 7 3 19 0 25 -6 12 -12 9 13 -8 53 -9 24 -10 24 -10 3z m15 -35 c3 -4 -1 -5
-10 -4 -8 1 -18 5 -22 8 -3 4 1 5 10 4 8 -1 18 -5 22 -8z"/>
<path d="M4872 3290 c1 -16 7 -31 14 -34 12 -5 14 18 4 44 -2 3 -2 8 -1 13 0
4 -3 7 -8 7 -5 0 -9 -13 -9 -30z"/>
</g>
</svg>
